<svg width="100.00000000000001" height="100.00000000000001" xmlns="http://www.w3.org/2000/svg">
 <g>
  <title>Layer 1</title>
  <g>
   <g>
    <title>Layer 1</title>
    <g id="svg_2">
     <!-- <path id="svg_6" d="m43.7798,43.7802l0,-13.999c0,-1.9588 0.536,-3.55 1.607,-4.7741c1.071,-1.2546 2.601,-1.8819 4.59,-1.8819s3.519,0.6273 4.59,1.8819c1.102,1.2241 1.653,2.8153 1.653,4.7737l0,13.999l13.816,0c2.019,0 3.611,0.551 4.773,1.653c1.194,1.071 1.791,2.586 1.791,4.544c0,1.989 -0.597,3.534 -1.791,4.636c-1.162,1.102 -2.754,1.652 -4.773,1.652l-13.816,0l0,13.954c0,1.989 -0.551,3.596 -1.653,4.82c-1.101,1.224 -2.632,1.836 -4.59,1.836s-3.488,-0.612 -4.59,-1.836c-1.071,-1.224 -1.607,-2.831 -1.607,-4.82l0,-13.954l-13.816,0c-1.9582,0 -3.5494,-0.596 -4.7735,-1.79c-1.1934,-1.224 -1.7901,-2.723 -1.7901,-4.498c0,-1.958 0.5814,-3.473 1.7442,-4.544c1.1935,-1.102 2.8,-1.653 4.8196,-1.653l13.816,0l-0.0002,0.0004z" stroke-linejoin="round" stroke="#ffffff" stroke-linecap="round" stroke-width="5" fill="none"/> -->
     <path id="svg_3" d="m43.7798,43.7802l0,-13.999c0,-1.9588 0.536,-3.55 1.607,-4.7741c1.071,-1.2546 2.601,-1.8819 4.59,-1.8819s3.519,0.6273 4.59,1.8819c1.102,1.2241 1.653,2.8153 1.653,4.7737l0,13.999l13.816,0c2.019,0 3.611,0.551 4.773,1.653c1.194,1.071 1.791,2.586 1.791,4.544c0,1.989 -0.597,3.534 -1.791,4.636c-1.162,1.102 -2.754,1.652 -4.773,1.652l-13.816,0l0,13.954c0,1.989 -0.551,3.596 -1.653,4.82c-1.101,1.224 -2.632,1.836 -4.59,1.836s-3.488,-0.612 -4.59,-1.836c-1.071,-1.224 -1.607,-2.831 -1.607,-4.82l0,-13.954l-13.816,0c-1.9582,0 -3.5494,-0.596 -4.7735,-1.79c-1.1934,-1.224 -1.7901,-2.723 -1.7901,-4.498c0,-1.958 0.5814,-3.473 1.7442,-4.544c1.1935,-1.102 2.8,-1.653 4.8196,-1.653l13.816,0l-0.0002,0.0004z" fill="#000000"/>
     <metadata>image/svg+xmlOpenclipart</metadata>
    </g>
   </g>
  </g>
 </g>

</svg>